<svg fill="#fff" xmlns="http://www.w3.org/2000/svg" height="800" width="1200" overflow="visible" viewBox="-120.44115 -51.03825 1043.8233 306.2295"><path fill="#A6A6A6" d="M52.82 85.151l-23.905 15.581.034-31.699z"/><path fill="#7F7F7F" d="M75.597 100.535l.012 37.448-27.329-18.156z"/><path fill="#2F2386" d="M7.185 21.259L41.917 0l95.679 62.812-33.84 22.452z"/><path fill="#A6A6A6" d="M103.742 85.264l33.854-22.452v34.304l-33.84 22.308z"/><path fill="#FFF" d="M103.756 85.264L7.185 21.259l.028 93.645 21.702-14.172.021-31.718 46.673 31.521v37.448l28.147-18.559z"/><path fill="#7F7F7F" d="M73.638 169.385l87.181-57.597.013 33.347-87.183 59.018z"/><path fill="#FFF" d="M.059 152.49L0 119.6l73.636 49.785.013 34.768z"/><path fill="#F9B314" d="M75.609 137.983L48.28 119.81l27.317-19.275L52.82 85.151 0 119.6l73.636 49.785 87.183-57.597-23.223-14.672z"/><path d="M295.729 125.563V76.749c0-4.83 3.914-8.808 8.706-8.866l71.59-.008c.982 0 1.79.799 1.79 1.802l-.011 9.924c0 .997-.771 1.761-1.75 1.761l-50.38-.021c-.099 0-2.848-.032-4.815 1.896-1.235 1.185-1.859 2.915-1.859 5.049v25.858c0 5.36 3.759 6.774 5.762 6.774l51.292.018c1.698 0 1.761 1.327 1.761 1.74v9.904c0 .922-.833 1.773-1.702 1.876h-71.742c-4.756-.062-8.642-4.043-8.642-8.893zm-21.433-57.705c4.204 0 7.648 3.446 7.648 7.644l-.015 58.875H258.66l-.029-48.249c-.069-4.843-4.297-4.787-4.325-4.787h-37.343v53.036h-23.932V67.875zm176.56 48.767v-5.145c0-2.352-1.92-4.26-4.271-4.26l-47.121-.02c-4.976 0-9.044-4.059-9.044-9.038V76.949c0-4.999 4.068-9.051 9.044-9.051h71.138c.997 0 1.802.802 1.802 1.778v9.818c0 .99-.805 1.79-1.802 1.79h-54.276c-2.357 0-4.257 1.924-4.257 4.275v3.551c0 2.245 1.628 4.62 4.197 4.62l47.513-.016c5.029 0 8.963 3.801 8.963 8.668l-.034 23.008c0 5.003-4.078 9.065-9.061 9.065l-71.247.01c-1.407 0-1.796-1.344-1.796-2.146v-9.636a1.79 1.79 0 011.796-1.787h54.184a4.268 4.268 0 004.272-4.271zm113.096-48.952h-69.569c-4.803.047-8.678 3.968-8.678 8.75v49.437c0 4.752 3.875 8.68 8.651 8.738h69.596c4.771-.059 8.657-3.986 8.657-8.738V76.423c0-4.782-3.886-8.703-8.657-8.75zm-14.125 48.175c0 3.095-1.881 5.25-4.594 5.25h-31.726c-2.614 0-4.754-2.155-4.754-4.771V85.91c0-2.636 2.134-4.786 4.754-4.786l31.771.014c2.549 0 4.567 1.877 4.567 4.286zm35.744-39.142c0-4.733 4.079-8.765 8.918-8.823l75.457-.025c.871 0 1.623.727 1.623 1.617v10.126c0 .997-.752 1.74-1.729 1.74h-54.771c-.107 0-2.898-.056-4.859 1.868-1.207 1.165-1.821 2.808-1.821 4.867v7.544l57.341.006c.897 0 1.624.743 1.624 1.63v10.185c0 .982-.74 1.734-1.736 1.734H608.37s.02 25.192 0 25.202c0-.01-22.783.018-22.797 0-.028-.023-.002-57.671-.002-57.671zm95.409 4.564a1.81 1.81 0 01-1.802-1.805v-9.817c0-1.003.819-1.79 1.802-1.79h85.958c.996 0 1.796.787 1.796 1.79l.007 9.817c0 .987-.799 1.785-1.803 1.785h-25.061c-3.662 0-6.658 2.977-6.658 6.656 0 0 .006 47.41.014 47.417-.008-.007-22.771-.007-22.777 0 .007-.007 0-47.379 0-47.379 0-3.683-3.003-6.673-6.68-6.673H680.98zm110.762-18.228c2.64 0 4.896.955 6.716 2.823 1.896 1.889 2.872 4.126 2.872 6.773 0 2.661-.976 4.927-2.872 6.792-1.819 1.855-4.057 2.845-6.716 2.845-2.694 0-4.997-.99-6.811-2.845-1.85-1.865-2.799-4.131-2.799-6.792 0-2.647.949-4.884 2.825-6.773 1.86-1.868 4.091-2.823 6.785-2.823zm11.199 9.595c0-3.127-1.135-5.682-3.306-7.854-2.199-2.184-4.792-3.247-7.894-3.247-3.09 0-5.71 1.063-7.842 3.247-2.131 2.172-3.293 4.727-3.293 7.854 0 3.089 1.142 5.762 3.253 7.86 2.172 2.199 4.792 3.293 7.882 3.293 3.102 0 5.694-1.095 7.894-3.293 2.172-2.098 3.306-4.817 3.306-7.86z"/><path d="M787.108 66.556h4.68c1.34-.017 2.718-.017 3.694.821a3.077 3.077 0 011.063 2.35c0 2.278-1.953 2.825-2.547 2.99 1.841.172 1.979 1.216 2.196 2.809.186 1.424.283 2.017.378 2.365.138.536.229.668.362.869h-2.897c-.112-.676-.481-3.758-.648-4.241-.23-.689-.877-.689-1.313-.689h-2.297v4.93h-2.672V66.556zm2.594 5.338h2.092c.317 0 .918 0 1.334-.332.204-.146.686-.558.686-1.427 0-.821-.409-1.222-.641-1.372-.409-.292-.897-.292-1.716-.292h-1.755z"/></svg>